<?xml version="1.0" standalone="no"?>
<!DOCTYPE svg PUBLIC "-//W3C//DTD SVG 20010904//EN"
 "http://www.w3.org/TR/2001/REC-SVG-20010904/DTD/svg10.dtd">
<svg version="1.0" xmlns="http://www.w3.org/2000/svg"
 width="16.000000pt" height="16.000000pt" viewBox="0 0 16.000000 16.000000"
 preserveAspectRatio="xMidYMid meet">
<metadata>
Created by potrace 1.11, written by Peter Selinger 2001-2013
</metadata>
<g transform="translate(0.000000,16.000000) scale(0.000610,-0.000610)"
fill="#000000" stroke="none">
<path d="M15647 22674 c-1 -1 -135 -5 -297 -8 -388 -8 -734 -21 -1050 -41 -47
-3 -119 -7 -160 -10 -41 -2 -104 -7 -140 -9 -36 -3 -110 -7 -165 -11 -55 -3
-116 -8 -135 -10 -19 -2 -69 -7 -110 -10 -41 -3 -100 -8 -130 -10 -30 -3 -82
-7 -115 -10 -130 -11 -219 -19 -325 -30 -14 -2 -59 -6 -100 -10 -41 -4 -88 -8
-105 -11 -16 -2 -57 -6 -90 -9 -33 -3 -76 -8 -95 -10 -41 -6 -130 -15 -180
-20 -19 -2 -53 -5 -75 -9 -22 -3 -65 -8 -95 -11 -30 -4 -66 -8 -80 -10 -14 -2
-47 -6 -75 -9 -27 -4 -61 -8 -75 -11 -14 -2 -47 -7 -75 -10 -163 -18 -690 -93
-890 -125 -66 -11 -138 -22 -160 -25 -22 -3 -49 -8 -61 -10 -12 -3 -39 -7 -60
-10 -21 -4 -50 -8 -64 -11 -14 -2 -52 -9 -85 -14 -33 -5 -71 -12 -85 -14 -14
-3 -41 -7 -60 -10 -31 -5 -388 -69 -450 -81 -14 -3 -41 -8 -60 -11 -19 -3 -66
-12 -105 -20 -38 -8 -86 -17 -105 -20 -19 -3 -53 -9 -75 -14 -22 -5 -56 -12
-75 -15 -19 -3 -132 -26 -250 -51 -118 -25 -255 -54 -305 -64 -49 -11 -142
-31 -205 -45 -63 -15 -124 -28 -135 -30 -17 -4 -35 -8 -85 -20 -3 -1 -32 -7
-65 -15 -33 -8 -62 -14 -65 -15 -3 -1 -21 -5 -40 -9 -19 -5 -118 -28 -220 -53
-102 -25 -192 -46 -200 -48 -63 -13 -691 -180 -925 -247 -77 -21 -147 -41
-155 -44 -77 -21 -176 -51 -528 -158 -124 -38 -752 -248 -867 -290 -213 -79
-532 -200 -572 -217 -23 -11 -45 -19 -48 -19 -3 0 -31 -11 -61 -25 -30 -14
-57 -25 -60 -25 -6 0 -154 -63 -244 -103 -25 -11 -70 -31 -100 -44 -30 -14
-74 -33 -97 -44 -23 -10 -47 -19 -54 -19 -7 0 -10 -2 -7 -5 3 -3 103 19 223
50 120 31 225 58 234 60 9 2 54 13 101 24 102 26 83 22 250 61 184 44 339 80
374 86 16 3 32 7 36 9 4 2 20 6 36 9 16 3 81 17 144 32 100 23 254 56 315 68
11 3 52 11 90 20 85 18 44 10 470 95 193 38 366 72 385 75 19 3 49 8 65 11
138 26 346 64 370 68 27 5 407 69 480 81 31 5 194 31 255 40 19 3 94 14 165
25 72 11 150 23 175 26 25 3 56 8 70 10 14 2 45 7 70 10 25 3 78 10 119 16 85
12 104 15 221 29 47 6 96 13 110 15 36 6 97 13 160 20 30 3 71 8 90 10 19 3
55 7 80 10 25 3 65 7 90 10 124 15 185 21 265 29 33 3 76 8 95 11 19 2 67 7
105 10 39 3 88 8 110 10 68 8 127 14 210 20 44 3 99 8 121 10 23 3 75 7 115
10 41 3 99 7 129 10 68 5 166 12 290 20 52 3 120 8 150 10 119 9 366 20 675
31 287 11 1243 11 1505 0 276 -11 480 -21 610 -31 30 -2 91 -7 135 -10 44 -3
100 -8 125 -10 25 -3 77 -7 115 -10 72 -5 152 -14 195 -20 14 -2 57 -6 95 -10
39 -3 81 -7 95 -10 14 -2 50 -7 80 -10 30 -3 70 -8 88 -10 93 -12 200 -27 222
-30 14 -3 86 -14 160 -25 114 -17 399 -66 493 -84 15 -4 37 -8 50 -10 76 -15
276 -58 306 -66 20 -5 50 -12 68 -15 18 -3 42 -9 55 -14 13 -5 26 -9 31 -9 4
0 20 -3 35 -6 15 -4 36 -8 47 -10 73 -15 496 -134 585 -164 8 -3 20 -6 25 -8
31 -8 236 -78 335 -114 63 -23 133 -48 155 -56 22 -8 49 -18 60 -24 11 -5 56
-23 100 -40 44 -17 94 -37 110 -44 17 -8 46 -21 65 -29 253 -112 548 -259 703
-351 43 -25 80 -46 82 -46 7 0 265 -165 370 -237 106 -73 364 -268 415 -315
14 -13 55 -48 90 -78 77 -65 76 -64 221 -206 102 -100 210 -214 311 -329 30
-34 167 -207 227 -285 43 -57 192 -281 246 -370 91 -150 220 -396 295 -565 12
-27 28 -63 35 -80 131 -294 231 -684 262 -1025 9 -100 10 -542 1 -616 -4 -28
-9 -77 -13 -110 -5 -51 -31 -218 -40 -264 -63 -306 -160 -634 -252 -850 -3 -8
-7 -17 -8 -20 -1 -3 -9 -22 -18 -44 -9 -21 -17 -40 -17 -42 0 -14 -173 -370
-240 -494 -49 -90 -216 -373 -232 -395 -4 -5 -50 -73 -101 -150 -120 -180
-147 -219 -264 -373 -233 -307 -557 -693 -812 -967 -110 -117 -588 -592 -690
-685 -58 -52 -112 -102 -121 -110 -186 -176 -672 -575 -995 -817 -268 -201
-745 -528 -1003 -689 -35 -21 -74 -46 -87 -54 -50 -31 -482 -289 -520 -311
-556 -312 -1007 -545 -1450 -749 -33 -15 -89 -41 -125 -58 -36 -16 -100 -46
-143 -66 -43 -20 -80 -36 -82 -36 -3 0 -35 -14 -72 -31 -218 -100 -838 -355
-1118 -460 -71 -27 -139 -53 -150 -58 -24 -11 -56 -23 -70 -27 -5 -1 -48 -16
-95 -34 -47 -18 -110 -41 -140 -52 -30 -12 -64 -24 -75 -28 -11 -5 -36 -13
-55 -20 -19 -7 -44 -16 -55 -20 -11 -5 -65 -24 -120 -44 -55 -19 -152 -52
-215 -74 -159 -56 -627 -212 -648 -217 -9 -2 -57 -18 -107 -34 -99 -34 -324
-105 -395 -126 -25 -7 -106 -32 -180 -55 -349 -107 -733 -218 -1120 -324 -155
-42 -615 -160 -663 -170 -12 -3 -32 -7 -44 -10 -13 -4 -31 -8 -40 -10 -10 -2
-67 -16 -128 -31 -122 -29 -128 -31 -480 -108 -216 -48 -637 -135 -730 -151
-16 -3 -43 -8 -60 -11 -16 -3 -55 -10 -85 -16 -30 -6 -66 -12 -80 -15 -14 -3
-63 -12 -110 -20 -47 -9 -92 -17 -100 -19 -8 -2 -37 -6 -64 -9 -27 -4 -52 -9
-55 -10 -3 -2 -28 -7 -56 -10 -27 -4 -57 -9 -65 -11 -14 -4 -41 -8 -127 -20
-21 -3 -49 -8 -63 -11 -56 -10 -67 -12 -115 -18 -27 -4 -61 -8 -75 -11 -28 -5
-65 -11 -125 -21 -22 -3 -43 -9 -47 -12 -3 -4 -25 -50 -48 -102 -23 -52 -51
-115 -62 -139 -11 -23 -61 -138 -112 -255 -93 -210 -117 -264 -162 -364 -13
-29 -24 -54 -24 -57 0 -2 -13 -32 -29 -67 -16 -35 -82 -182 -146 -328 -117
-264 -137 -310 -180 -405 -12 -27 -37 -84 -55 -125 -18 -41 -43 -100 -57 -130
-14 -30 -32 -71 -40 -90 -8 -19 -28 -63 -44 -98 -16 -35 -29 -65 -29 -67 0 -2
-18 -43 -40 -90 -22 -47 -40 -88 -40 -91 0 -5 -64 -149 -121 -272 -22 -46 -39
-87 -39 -91 0 -4 -8 -25 -19 -47 -10 -21 -29 -61 -41 -89 -12 -27 -33 -74 -47
-103 -14 -29 -22 -56 -19 -59 4 -4 1001 -7 2216 -7 l2210 -1 26 60 c15 33 37
83 50 110 12 28 75 169 139 315 83 192 121 266 133 267 9 1 80 14 157 28 77
15 151 28 165 31 14 2 36 7 50 9 14 3 36 7 50 10 14 3 59 11 100 20 41 8 86
16 100 19 58 10 426 87 555 116 77 17 151 33 165 36 25 5 210 48 370 85 47 11
138 33 202 49 65 16 128 32 140 34 13 3 59 14 103 26 44 12 91 24 105 26 14 3
117 30 230 61 113 30 212 56 220 58 8 2 80 22 160 45 80 23 152 43 160 45 8 2
60 17 115 33 55 16 154 46 220 65 66 20 165 50 220 68 55 17 127 40 160 50
186 56 737 240 1060 354 88 31 189 67 225 80 36 12 76 27 90 33 14 6 131 50
260 97 129 47 244 90 255 95 11 6 72 30 135 54 110 42 448 176 500 199 14 6
27 11 30 12 3 1 16 6 30 12 14 6 77 32 140 58 63 26 139 58 168 71 29 13 55
24 57 24 3 0 24 9 48 19 23 11 155 69 292 129 138 61 286 127 330 147 44 20
94 43 110 50 17 8 84 39 150 70 66 31 161 75 210 98 50 23 270 131 490 242
220 110 403 201 407 203 4 2 17 -18 29 -45 11 -26 32 -72 45 -101 13 -29 24
-54 24 -57 0 -2 13 -32 29 -67 58 -126 81 -179 81 -183 0 -2 13 -32 29 -67 16
-35 52 -117 81 -183 29 -66 60 -138 70 -160 10 -22 66 -150 125 -285 59 -135
117 -267 130 -295 12 -27 37 -84 55 -125 36 -85 29 -67 178 -405 60 -137 140
-320 177 -405 37 -85 78 -177 90 -205 12 -27 86 -196 165 -375 78 -179 150
-343 160 -365 10 -22 50 -114 90 -205 39 -91 76 -169 81 -174 9 -10 4440 -16
4434 -6 -3 6 -26 58 -115 260 -40 91 -87 198 -106 238 -19 41 -34 75 -34 78 0
2 -11 27 -24 56 -13 29 -50 112 -81 183 -53 120 -153 345 -195 440 -66 147
-253 573 -267 608 -9 23 -19 47 -23 52 -4 6 -40 84 -80 175 -39 91 -80 183
-90 205 -10 22 -95 216 -190 430 -94 215 -180 410 -192 435 -18 40 -70 157
-265 600 -31 69 -118 267 -195 440 -77 173 -145 329 -153 345 -7 17 -24 56
-39 88 -14 32 -26 60 -26 62 0 3 -15 37 -34 77 -18 40 -127 285 -241 543 -114
259 -215 488 -226 511 -10 22 -19 43 -19 46 0 4 69 59 153 124 261 202 623
495 772 625 16 15 73 64 125 109 405 352 824 753 1143 1093 62 66 119 127 128
136 27 29 203 225 259 290 30 36 60 69 65 75 37 41 180 215 281 341 104 131
158 201 335 440 139 187 373 547 531 819 313 535 596 1190 728 1682 51 190 59
221 64 244 3 14 14 66 25 115 22 99 57 292 66 370 4 28 8 62 11 76 2 14 6 52
10 85 3 32 7 75 9 94 23 202 23 728 1 860 -2 14 -7 52 -10 85 -26 262 -84 533
-175 830 -46 149 -88 257 -191 495 -331 767 -867 1470 -1556 2042 -338 281
-747 556 -1169 785 -84 46 -541 273 -549 273 -2 0 -37 15 -78 34 -40 18 -136
59 -213 90 -77 31 -149 61 -160 65 -180 76 -607 223 -905 311 -146 44 -480
136 -520 145 -8 2 -76 18 -150 35 -74 18 -173 41 -220 52 -47 10 -94 21 -105
23 -19 5 -99 21 -140 29 -11 2 -65 13 -120 24 -170 34 -377 72 -485 88 -19 3
-84 14 -145 24 -60 10 -128 21 -150 24 -42 6 -240 33 -290 40 -16 3 -57 8 -90
12 -33 3 -68 8 -77 9 -9 2 -48 6 -85 10 -37 3 -79 8 -93 11 -14 2 -47 7 -75 9
-92 9 -242 23 -305 30 -19 2 -66 7 -105 10 -38 3 -88 8 -110 10 -22 2 -80 6
-130 10 -49 3 -112 8 -140 10 -45 4 -125 9 -315 20 -36 2 -123 7 -195 10 -71
3 -168 8 -215 10 -236 11 -1274 26 -1283 19z"/>
<path d="M1899 21106 c-2 -2 -35 -7 -72 -10 -85 -8 -240 -41 -332 -71 -625
-205 -1084 -707 -1231 -1347 -12 -53 -15 -66 -20 -103 -17 -121 -21 -205 -19
-340 14 -736 481 -1397 1175 -1662 104 -40 237 -77 315 -89 22 -3 42 -7 45 -9
28 -17 373 -25 490 -12 119 14 273 48 378 83 95 32 278 115 362 165 174 104
420 325 520 469 13 19 27 37 30 40 37 34 171 284 218 405 89 234 122 434 117
710 -2 94 -6 177 -9 185 -2 8 -7 33 -10 55 -18 147 -113 430 -185 558 -173
305 -361 510 -623 681 -205 133 -487 244 -695 272 -26 3 -57 9 -68 11 -25 7
-380 15 -386 9z"/>
<path d="M11604 19625 c-126 -285 -180 -407 -211 -475 -14 -30 -29 -64 -33
-75 -4 -11 -96 -220 -205 -465 -108 -245 -206 -465 -217 -490 -11 -25 -26 -58
-33 -75 -7 -16 -66 -149 -130 -295 -117 -266 -130 -296 -179 -403 -14 -32 -26
-59 -26 -62 0 -2 -16 -37 -35 -79 -19 -41 -93 -209 -165 -373 -72 -164 -140
-316 -150 -338 -10 -22 -46 -103 -80 -180 -68 -155 -88 -201 -115 -260 -9 -22
-44 -101 -77 -175 -33 -74 -73 -163 -89 -198 -16 -35 -29 -65 -29 -67 0 -3
-11 -28 -24 -57 -33 -72 -286 -645 -348 -788 -28 -63 -66 -148 -84 -188 -19
-41 -34 -75 -34 -77 0 -2 -13 -32 -29 -67 -17 -35 -89 -198 -162 -363 -301
-684 -362 -822 -384 -870 -12 -27 -37 -84 -55 -125 -18 -41 -48 -108 -66 -148
-19 -41 -34 -75 -34 -77 0 -2 -14 -34 -31 -72 -45 -101 -48 -106 -174 -393
-64 -146 -125 -285 -137 -310 -11 -25 -31 -70 -45 -100 -13 -30 -28 -64 -33
-75 -5 -11 -89 -200 -185 -420 -97 -220 -185 -420 -197 -445 -11 -25 -35 -79
-53 -120 -18 -41 -42 -95 -53 -120 -20 -42 -354 -800 -519 -1175 -41 -93 -85
-192 -97 -220 -13 -27 -38 -84 -56 -125 -18 -41 -43 -97 -56 -125 -21 -47
-225 -509 -265 -603 -10 -23 -19 -46 -20 -50 -1 -4 -8 -16 -15 -27 -8 -11 -14
-27 -14 -37 0 -10 -4 -18 -10 -18 -5 0 -10 -5 -10 -11 0 -9 -141 -334 -280
-644 -37 -84 -61 -137 -165 -375 -59 -135 -116 -262 -127 -283 l-20 -39 48 6
c27 4 56 9 64 11 8 3 32 7 52 9 21 3 88 14 150 25 62 11 124 22 138 25 14 2
43 7 65 11 22 4 49 9 60 11 69 13 133 25 155 29 14 3 86 17 160 31 74 14 146
28 160 31 14 2 52 10 85 18 33 7 78 16 100 19 22 4 56 11 75 16 19 5 46 11 60
14 14 2 59 12 100 21 41 9 86 19 100 21 60 11 585 134 700 164 41 10 86 21
100 24 14 2 70 16 125 31 55 14 107 28 115 30 124 28 943 256 1165 325 39 12
115 35 170 51 55 17 107 33 115 36 8 3 20 7 26 8 6 2 108 33 225 70 477 149
952 309 1459 490 163 58 689 257 765 289 17 7 68 28 115 46 47 18 89 37 95 42
5 4 15 8 23 8 7 0 32 9 56 19 23 11 67 29 96 41 29 12 74 30 99 41 25 11 55
24 66 28 67 28 154 65 180 77 168 73 413 182 465 206 289 134 357 167 640 308
244 121 409 206 495 255 22 12 74 40 115 62 70 38 126 69 210 116 19 11 55 31
80 45 25 14 85 49 134 79 49 29 92 53 96 53 4 0 13 6 19 13 9 12 -292 14
-1814 13 -1820 -1 -1825 -1 -1819 19 4 11 14 38 24 60 10 22 100 225 200 450
100 226 190 428 199 450 10 22 25 56 34 75 17 40 130 295 157 355 10 22 37 83
60 135 23 52 51 115 62 140 11 24 54 121 95 214 76 173 97 220 141 315 13 30
39 89 57 130 18 42 44 102 59 133 14 31 26 59 26 61 0 3 18 43 39 89 21 45 62
137 91 203 29 66 64 145 77 175 14 30 49 109 78 175 29 66 62 140 73 165 11
25 82 185 158 355 75 171 148 335 161 365 14 30 49 109 78 175 29 66 62 140
73 165 11 25 64 144 117 265 54 121 106 239 116 261 21 47 138 312 160 362 8
17 16 32 20 32 3 0 13 -19 24 -42 10 -24 28 -65 41 -93 12 -27 41 -93 64 -145
23 -52 48 -108 55 -125 8 -16 77 -172 153 -345 77 -173 151 -340 165 -370 13
-30 50 -113 82 -185 31 -71 66 -150 77 -175 11 -25 90 -202 175 -395 85 -192
163 -368 173 -390 10 -22 37 -83 60 -135 23 -52 51 -115 62 -140 11 -25 26
-58 34 -75 7 -16 40 -91 72 -165 33 -74 69 -155 80 -180 12 -25 84 -189 162
-365 78 -176 150 -338 160 -360 10 -22 44 -98 75 -170 32 -71 65 -148 75 -170
10 -22 35 -78 56 -125 20 -47 50 -113 65 -147 16 -34 40 -90 55 -125 14 -34
38 -90 53 -123 15 -33 45 -98 66 -145 21 -47 41 -89 46 -93 5 -7 129 68 174
105 6 5 71 52 145 105 212 150 590 439 720 549 14 12 68 57 120 100 52 43 100
83 106 89 6 5 37 33 70 60 52 45 118 102 164 145 9 8 39 35 66 59 245 222 576
547 774 761 58 63 112 121 120 130 20 20 159 178 235 265 33 38 65 73 70 79 6
6 36 43 67 82 31 39 63 77 70 85 46 48 232 293 230 303 -3 11 -70 168 -103
241 -10 22 -97 220 -194 440 -98 220 -188 424 -201 453 -13 29 -24 55 -24 57
0 7 -58 133 -81 178 -11 20 -18 37 -15 37 3 0 -8 26 -23 58 -16 31 -43 91 -61
132 -18 41 -40 93 -50 115 -10 22 -70 157 -133 300 -63 143 -184 418 -270 610
-85 193 -180 409 -212 480 -31 72 -67 153 -80 180 -13 28 -38 84 -55 125 -38
89 -63 145 -97 220 -14 30 -56 125 -93 210 -85 195 -186 423 -210 475 -10 22
-35 78 -55 125 -59 134 -76 171 -100 225 -12 28 -37 84 -55 125 -18 41 -52
118 -75 170 -24 52 -84 190 -135 305 -51 116 -103 235 -117 265 -14 30 -49
109 -78 175 -76 173 -93 212 -127 285 l-30 66 -2588 0 -2589 -1 -97 -220z"/>
<path d="M5 10200 c0 -3657 2 -6650 5 -6651 20 -4 4073 -3 4079 1 4 3 7 2996
7 6653 l-1 6647 -2045 0 -2045 0 0 -6650z"/>
</g>
</svg>
